<svg width="181" height="46" viewBox="0 0 181 46" fill="none" xmlns="http://www.w3.org/2000/svg">
<path d="M8.78906 2.79492V11.8281H15.332V15.1973H8.83789V30.627C8.83789 31.8314 9.06576 32.6615 9.52148 33.1172C10.0098 33.5729 10.7585 33.8008 11.7676 33.8008C12.2559 33.8008 12.7279 33.7845 13.1836 33.752C13.6719 33.7194 14.5508 33.5404 15.8203 33.2148V36.6816C14.9089 36.9746 13.9648 37.1536 12.9883 37.2188C12.0117 37.2839 11.263 37.3164 10.7422 37.3164C9.14714 37.3164 7.86133 37.1536 6.88477 36.8281C5.94076 36.4701 5.22461 35.9492 4.73633 35.2656C4.24805 34.6471 3.95508 33.8496 3.85742 32.873C3.75977 31.8965 3.71094 30.8548 3.71094 29.748V15.1973H0.146484V11.8281H3.71094V7.82422L8.78906 2.79492ZM23.9746 36.8281H18.7988V5.91992C18.7988 4.91081 18.7174 4.22721 18.5547 3.86914C18.3919 3.51107 18.1641 3.26693 17.8711 3.13672C17.3828 2.94141 16.9596 2.76237 16.6016 2.59961C16.276 2.4043 16.1133 2.07878 16.1133 1.62305C16.1133 0.776693 16.748 0.353516 18.0176 0.353516H22.1191C23.3561 0.353516 23.9746 0.858073 23.9746 1.86719V14.9043C24.4303 14.3184 24.9837 13.7812 25.6348 13.293C27.2298 12.056 29.0853 11.4375 31.2012 11.4375C33.3496 11.4375 35.1074 12.2025 36.4746 13.7324C37.8743 15.2298 38.5742 17.8177 38.5742 21.4961V36.8281H33.3984V21.3496C33.3984 19.1035 33.0892 17.5736 32.4707 16.7598C31.8848 15.9134 31.1198 15.4902 30.1758 15.4902C28.6458 15.4902 27.0996 16.4993 25.5371 18.5176C24.8861 19.3639 24.3652 20.3893 23.9746 21.5938V36.8281ZM47.4609 25.1094C47.5586 27.3229 48.2747 29.2598 49.6094 30.9199C50.9766 32.5801 52.7832 33.5241 55.0293 33.752C55.778 33.8496 56.6081 33.8171 57.5195 33.6543C58.431 33.4915 59.2936 33.2148 60.1074 32.8242C60.8887 32.4661 61.4746 32.3522 61.8652 32.4824C62.2559 32.6126 62.5814 32.8893 62.8418 33.3125C63.0371 33.7031 63.0208 34.11 62.793 34.5332C62.5651 34.9564 62.2559 35.2819 61.8652 35.5098C61.0189 36.0306 59.8958 36.4538 58.4961 36.7793C57.0964 37.1048 55.5339 37.2188 53.8086 37.1211C50.5534 36.9258 47.7702 35.64 45.459 33.2637C43.1803 30.8874 42.041 27.5671 42.041 23.3027C42.041 19.5267 43.0664 16.5645 45.1172 14.416C47.2005 12.2676 49.9674 11.1934 53.418 11.1934C56.3477 11.1934 58.7565 12.1862 60.6445 14.1719C62.5326 16.125 63.4766 19.1035 63.4766 23.1074V25.1094H47.4609ZM47.4609 21.6426H58.252C58.252 19.2012 57.7474 17.4108 56.7383 16.2715C55.7617 15.1322 54.6224 14.5625 53.3203 14.5625C51.7904 14.5625 50.4395 15.2135 49.2676 16.5156C48.1283 17.7852 47.526 19.4941 47.4609 21.6426ZM67.3828 17.4434C67.3828 16.4342 67.3014 15.7344 67.1387 15.3438C66.9759 14.9531 66.7643 14.709 66.5039 14.6113C65.9831 14.416 65.5436 14.2207 65.1855 14.0254C64.86 13.8301 64.6973 13.5208 64.6973 13.0977C64.6973 12.2513 65.332 11.8281 66.6016 11.8281H70.6543C71.8262 11.8281 72.4447 12.3001 72.5098 13.2441C74.0723 11.877 76.0254 11.1934 78.3691 11.1934C81.5918 11.1934 84.0658 12.3815 85.791 14.7578C87.5163 17.1341 88.3789 20.3079 88.3789 24.2793C88.3789 27.9902 87.4674 31.0664 85.6445 33.5078C83.8216 35.9492 81.25 37.1699 77.9297 37.1699C75.7487 37.1699 73.9421 36.6165 72.5098 35.5098V45.1777H67.3828V17.4434ZM83.2031 24.4258C83.2031 21.3984 82.666 19.0384 81.5918 17.3457C80.5501 15.653 79.1992 14.8066 77.5391 14.8066C76.3021 14.8066 75.1628 15.4414 74.1211 16.7109C73.0794 17.9805 72.5586 19.6569 72.5586 21.7402V26.3789C72.5586 28.9831 73.0794 30.8711 74.1211 32.043C75.1628 33.2148 76.3346 33.8008 77.6367 33.8008C79.069 33.8008 80.3548 32.987 81.4941 31.3594C82.6335 29.7318 83.2031 27.4206 83.2031 24.4258ZM105.908 34.6309C105.55 35.1191 104.785 35.6725 103.613 36.291C102.441 36.877 100.846 37.1699 98.8281 37.1699C96.6471 37.1699 94.8242 36.5352 93.3594 35.2656C91.9271 33.9635 91.2109 32.2708 91.2109 30.1875C91.2109 27.4206 92.4479 25.207 94.9219 23.5469C97.4284 21.8867 100.57 21.0566 104.346 21.0566H105.908V19.8848C105.908 18.2246 105.469 16.9225 104.59 15.9785C103.711 15.0345 102.588 14.5625 101.221 14.5625C100.016 14.5625 99.0072 14.8717 98.1934 15.4902C97.3796 16.1087 96.9727 17.1667 96.9727 18.6641H91.5039C91.5039 16.3529 92.3991 14.5299 94.1895 13.1953C96.0124 11.8607 98.4049 11.1934 101.367 11.1934C104.492 11.1934 106.885 11.9746 108.545 13.5371C110.205 15.0996 111.035 17.2318 111.035 19.9336V36.8281H105.908V34.6309ZM105.908 24.6211C102.881 24.5234 100.521 24.9466 98.8281 25.8906C97.168 26.8021 96.3379 28.0716 96.3379 29.6992C96.3379 31.0664 96.696 32.0267 97.4121 32.5801C98.1283 33.1335 98.9421 33.4102 99.8535 33.4102C101.416 33.4102 102.816 32.873 104.053 31.7988C105.29 30.6921 105.908 29.3737 105.908 27.8438V24.6211ZM122.363 25.4023C120.052 24.5885 118.18 23.5794 116.748 22.375C115.316 21.1706 114.6 19.6895 114.6 17.9316C114.6 15.8158 115.348 14.1393 116.846 12.9023C118.376 11.6328 120.605 10.9655 123.535 10.9004C124.805 10.8678 126.058 10.9655 127.295 11.1934C128.564 11.4212 129.753 11.7793 130.859 12.2676V17.2969C129.362 16.0924 128.027 15.2949 126.855 14.9043C125.716 14.4811 124.642 14.2858 123.633 14.3184C122.428 14.3509 121.468 14.6276 120.752 15.1484C120.036 15.6367 119.661 16.3854 119.629 17.3945C119.596 18.306 120.068 19.1198 121.045 19.8359C122.054 20.5195 123.454 21.2031 125.244 21.8867C127.816 22.8633 129.655 23.9538 130.762 25.1582C131.868 26.3301 132.422 27.7135 132.422 29.3086C132.422 31.7826 131.559 33.7194 129.834 35.1191C128.141 36.4863 125.749 37.1699 122.656 37.1699C121.159 37.1699 119.759 36.9583 118.457 36.5352C117.155 36.112 116.162 35.6074 115.479 35.0215C114.827 34.4681 114.469 33.9635 114.404 33.5078C114.372 33.0521 114.469 32.6615 114.697 32.3359C115.088 31.75 115.576 31.4408 116.162 31.4082C116.781 31.3757 117.367 31.6035 117.92 32.0918C118.538 32.5801 119.287 32.987 120.166 33.3125C121.045 33.6055 121.891 33.7357 122.705 33.7031C124.463 33.6055 125.716 33.1335 126.465 32.2871C127.246 31.4408 127.555 30.4154 127.393 29.2109C127.327 28.625 126.953 28.0065 126.27 27.3555C125.586 26.7044 124.284 26.0534 122.363 25.4023ZM142.285 2.79492V11.8281H148.828V15.1973H142.334V30.627C142.334 31.8314 142.562 32.6615 143.018 33.1172C143.506 33.5729 144.255 33.8008 145.264 33.8008C145.752 33.8008 146.224 33.7845 146.68 33.752C147.168 33.7194 148.047 33.5404 149.316 33.2148V36.6816C148.405 36.9746 147.461 37.1536 146.484 37.2188C145.508 37.2839 144.759 37.3164 144.238 37.3164C142.643 37.3164 141.357 37.1536 140.381 36.8281C139.437 36.4701 138.721 35.9492 138.232 35.2656C137.744 34.6471 137.451 33.8496 137.354 32.873C137.256 31.8965 137.207 30.8548 137.207 29.748V15.1973H133.643V11.8281H137.207V7.82422L142.285 2.79492ZM168.945 36.7793C169.401 37.6257 170.166 38.3092 171.24 38.8301C172.738 39.5788 175.081 39.6602 178.271 39.0742V41.8574C177.165 42.1829 176.253 42.3783 175.537 42.4434C174.821 42.5085 174.023 42.541 173.145 42.541C170.182 42.541 167.773 42.0039 165.918 40.9297C164.29 40.0508 163.021 38.6836 162.109 36.8281C158.919 36.2096 156.315 34.6146 154.297 32.043C151.628 28.625 150.293 24.2467 150.293 18.9082C150.293 13.6022 151.611 9.25651 154.248 5.87109C156.917 2.48568 160.628 0.792969 165.381 0.792969C170.101 0.792969 173.779 2.48568 176.416 5.87109C179.085 9.25651 180.42 13.6022 180.42 18.9082C180.42 24.2467 179.102 28.625 176.465 32.043C174.512 34.5495 172.005 36.1283 168.945 36.7793ZM155.762 18.9082C155.762 23.5306 156.673 27.0951 158.496 29.6016C160.352 32.1081 162.646 33.3613 165.381 33.3613C168.115 33.3613 170.394 32.1081 172.217 29.6016C174.04 27.0951 174.951 23.5306 174.951 18.9082C174.951 14.3184 174.04 10.7702 172.217 8.26367C170.394 5.75716 168.115 4.50391 165.381 4.50391C162.646 4.50391 160.352 5.75716 158.496 8.26367C156.673 10.7702 155.762 14.3184 155.762 18.9082Z" fill="#0000FF"/>
</svg>
